/* XPM */
static char *_566bbdfa2e0481daaf53f66e7bfd465cttsnYzuRPNyhLe4[] = {
/* columns rows colors chars-per-pixel */
"64 64 244 2 ",
"   c #020103",
".  c #06070B",
"X  c #0B1317",
"o  c #0F1B2E",
"O  c #172B32",
"+  c #152638",
"@  c #313435",
"#  c #501B16",
"$  c #651D19",
"%  c #552619",
"&  c #65241B",
"*  c #533027",
"=  c #672A23",
"-  c #6B3525",
";  c #773A26",
":  c #74332A",
">  c #78442C",
",  c #60542F",
"<  c #19314C",
"1  c #213B56",
"2  c #193C66",
"3  c #703F46",
"4  c #18535D",
"5  c #284A50",
"6  c #095560",
"7  c #0F5965",
"8  c #195761",
"9  c #175A64",
"0  c #1E4772",
"q  c #225C65",
"w  c #275D67",
"e  c #274C77",
"r  c #2D5070",
"t  c #0A6C7B",
"y  c #136976",
"u  c #1C6975",
"i  c #26636D",
"p  c #2C656D",
"a  c #296671",
"s  c #216974",
"d  c #2A6A73",
"f  c #2E6D73",
"g  c #246D78",
"h  c #346B74",
"j  c #356C74",
"k  c #36717A",
"l  c #377478",
"z  c #3A747D",
"x  c #4D5150",
"c  c #6A544A",
"v  c #4F605B",
"b  c #757056",
"n  c #506F72",
"m  c #6F7774",
"M  c #84472B",
"N  c #8F5434",
"B  c #A56B34",
"V  c #956D51",
"C  c #AF7154",
"Z  c #93776C",
"A  c #B57C70",
"S  c #F15852",
"D  c #C87653",
"F  c #EE6958",
"G  c #F2746B",
"H  c #518F78",
"J  c #70906F",
"K  c #A38F27",
"L  c #F1B515",
"P  c #DBA326",
"I  c #F8C81A",
"U  c #D0C83F",
"Y  c #F8CB28",
"T  c #F2CD3B",
"R  c #858E51",
"E  c #AC9955",
"W  c #8E8B72",
"Q  c #B58E6F",
"!  c #85A368",
"~  c #D59353",
"^  c #EB914F",
"/  c #D3BB48",
"(  c #E9B150",
")  c #CE8C6B",
"_  c #EB8F6A",
"`  c #D5AD77",
"'  c #EFAF75",
"]  c #CCC255",
"[  c #F4D947",
"{  c #FAE458",
"}  c #D5CB71",
"|  c #F8D16D",
" . c #F9E66B",
".. c #2A5686",
"X. c #335D89",
"o. c #0C7180",
"O. c #127685",
"+. c #187687",
"@. c #1B7E8D",
"#. c #38628E",
"$. c #227683",
"%. c #2B7681",
"&. c #247986",
"*. c #2A7983",
"=. c #257C8A",
"-. c #297F8C",
";. c #377883",
":. c #357E89",
">. c #396594",
",. c #487191",
"<. c #597CA1",
"1. c #1C808F",
"2. c #17889B",
"3. c #27818E",
"4. c #29808E",
"5. c #37808B",
"6. c #3B838E",
"7. c #2D8491",
"8. c #278999",
"9. c #2C8E9D",
"0. c #328693",
"q. c #398A96",
"w. c #3C8B96",
"e. c #358E9B",
"r. c #32919E",
"t. c #1D8FA0",
"y. c #1F91A2",
"u. c #2F91A0",
"i. c #2A97AC",
"p. c #2E9DAE",
"a. c #3293A2",
"s. c #3B93A2",
"d. c #349BAA",
"f. c #399BAA",
"g. c #269BB5",
"h. c #309FB0",
"j. c #2FA1B2",
"k. c #32A1B2",
"l. c #38AABB",
"z. c #44838D",
"x. c #4C858E",
"c. c #518789",
"v. c #448A95",
"b. c #4B8A94",
"n. c #4A8A95",
"m. c #418E9A",
"M. c #538A92",
"N. c #4C9094",
"B. c #45929E",
"V. c #4A939E",
"C. c #56929B",
"Z. c #5C949C",
"A. c #669092",
"S. c #4595A1",
"D. c #4996A2",
"F. c #499AA6",
"G. c #4D9DA9",
"H. c #5C9AA4",
"J. c #5C9BA5",
"K. c #519FAB",
"L. c #6987A8",
"P. c #6694A6",
"I. c #629BA4",
"U. c #6D9FA7",
"Y. c #629EA8",
"T. c #7795AD",
"R. c #4CA2AD",
"E. c #54A1AD",
"W. c #43A5B4",
"Q. c #4CA5B3",
"!. c #47A9B8",
"~. c #56A5B1",
"^. c #54AAB7",
"/. c #57AEBB",
"(. c #58AFBC",
"). c #6DA0A7",
"_. c #6EA3AB",
"`. c #71A4AB",
"'. c #79A6AC",
"]. c #62A6B1",
"[. c #66ABB5",
"{. c #6CAAB3",
"}. c #72AAB3",
"|. c #7CAAB0",
" X c #72B0B9",
".X c #5AB7C5",
"XX c #66BECC",
"oX c #6EBDC8",
"OX c #6DC3CF",
"+X c #76C4CF",
"@X c #78C4CF",
"#X c #8A938C",
"$X c #B4A793",
"%X c #929EA1",
"&X c #8FABB8",
"*X c #A6A8A8",
"=X c #A6BDBC",
"-X c #B4BBBC",
";X c #E09288",
":X c #D6AF8C",
">X c #EAB88B",
",X c #F7BC86",
"<X c #E8B391",
"1X c #CEB4A8",
"2X c #EFBBAC",
"3X c #A9C2AE",
"4X c #EFCA91",
"5X c #F6C796",
"6X c #FCF596",
"7X c #D4C7B3",
"8X c #EACAAE",
"9X c #F5C9A3",
"0X c #FAD4A7",
"qX c #F9DBB4",
"wX c #FCE2B9",
"eX c #FAF2B5",
"rX c #BABFC0",
"tX c #81C6CF",
"yX c #ABC3C2",
"uX c #AAC6C6",
"iX c #B2C5C5",
"pX c #BDC5C6",
"aX c #B8C9C7",
"sX c #BAC6C8",
"dX c #B4CCCC",
"fX c #BBCBCB",
"gX c #B7D0CF",
"hX c #BBD0CF",
"jX c #B4D0D0",
"kX c #BBD3D3",
"lX c #C7C6C6",
"zX c #C2CBCC",
"xX c #D1D0C9",
"cX c #C5CED0",
"vX c #C7D4D3",
"bX c #C9D7D5",
"nX c #C9D9D6",
"mX c #D4D3D3",
"MX c #EBDECE",
"NX c #F9E8C9",
"BX c #F6F1D3",
"VX c #FCF6D6",
"CX c #F3EFEB",
"ZX c #FCF8E5",
/* pixels */
"aXaXvXnXbXbXbXvXfXsXvXbXnXvXnXvXaXaXvXnXnXvXnXvXaXfXbXbXnXnXnXvXaXaXvXnXnXbXnXvXfXfXbXnXnXnXnXnXdXaXbXnXnXnXnXnXfXfXnXnXnXnXnXnX",
"aXaXdXdXjXjXjXdXyXyXdXjXjXjXjXdXfXsXdXgXdXkXhXdXyXyXdXhXgXhXdXdXaXaXdXdXdXdXdXiX=XyXiXdXdXdXuXuXfXaXdXuXdXuXuXuX=X=XuXdXuXdXdXuX",
"mXfX].E.E.E.K.K.G.K.E.K.E.E.K.].zXzX|.`.`.`.}.`.`.`.`.`.`._.Z.A.zXzXA.x.M.M.M.x.,.c.M.M.c.x.h n pXaXq.@.3.3.3.3.1.3.3.3.3.1.3.3.",
"mXfXE.s.s.s.s.s.s.s.s.s.s.s.s.K.cXzX_.I.I.I.I.I.I.J.I.I.I.J.x.c.-X-Xx.;.z z ;.;.;.;.;.;.z z 8 p pXaX=.t o.o.t t t t t o.t o.t t ",
"mXfX~.S.7.-.-.-.-.-.-.-.-.7.s.K.zXzX`.I.P.C.H.Z.Z.Z.Z.Z.A.v c * * - v :.d a a a a a d a d d 8 h pXsX=.o.@.1.@.@.O.1.1.1.1.1.t o.",
"mXzXK.s.-.&.=.=.=.=.=.&.=.-.s.E.zXcX`.I.C.Z.Z.Z.Z.H.c.x N ; M = * M % v d i i i i i a w w w 8 p lXfX3.o.@.1.1.1.1.1.1.1.1.1.O.o.",
"mXzXK.s.-.=.=.=.=.=.=.=.=.7.s.K.zXcX`.I.Z.C.C.C.Z.m > > M N ; = ; ; > - @ w i i a i a i a a 8 p pXpX=.o.@.1.1.1.1.1.1.1.1.1.O.t ",
"mXfXK.s.-.=.=.=.=.=.=.=.=.-.s.K.zXzX`.I.Z.Z.C.H.J M M N M ; = > M : > = & x a i i w i i a w 8 h pXaX=.t @.1.@.1.1.1.1.1.1.1.O.t ",
"mXzXE.s.-.=.=.=.=.=.=.=.&.-.s.E.zXcX`.I.Z.Z.Z.J N M > > : & = N = & & : = * p a i a i i a i 8 p pXaX3.t 1.1.1.1.1.1.1.1.1.1.t t ",
"mXfXE.s.-.=.=.=.=.=.=.=.=.-.s.E.zXcX`.I.Z.Z.Z.V N M ; & & $ $ - % & # & $ : 5 d i i i i i i 8 h pXaX3.t O.1.1.1.1.1.1.1.1.O.O.o.",
"mXzXE.s.-.=.=.=.=.=.=.=.=.-.s.K.zXzX`.I.Z.C.b V N M # * c c , * * * : = : % @ d i i i i i i 8 h lXaX3.t 1.1.1.1.1.1.1.1.1.1.o.t ",
"mXsXE.s.-.=.=.=.=.=.-.=.=.-.s.K.zXzX`.I.J.n M N N > c 1XNXqX0X5X1X8X<X1X,XQ x w i i i i i w 8 p pXaX3.t 1.1.1.1.1.1.1.1.1.1.o.O.",
"mXsX~.s.-.=.=.=.=.=.=.=.&.-.s.E.zXcX`.I.H.v - N M # W ZXqXqX0X0X0X5X5X5X' 5Xc w a i i i i i 8 h pXaX=.t 1.1.1.1.1.1.1.1.1.1.t t ",
"mXzXE.s.-.-.-.-.-.-.-.-.-.-.s.E.zXcX`.Z.Z.,.- ; ; # 1XBX0XwXwXqX0X5X5X,X' ' V w i i i i i i 9 d lXaX4.o.1.1.1.1.1.1.1.1.1.1.O.o.",
"mXsXK.s.s.s.s.s.s.s.s.s.s.s.s.E.zXzXZ.x.b.z., M , # 7XVXNX:X) >XwX0X5X4X5X5XQ 5 8 8 8 4 8 4 4 a lXsX=.t t t t t t o.t t o.t t t ",
"mXzX].K.E.E.K.K.K.K.K.E.E.E.K.].zXzXA.M.Z.x.# : - # 2XZX;X<X;X^ D :X0X5X_ ) E p j p j h h h a n pXaXq.1.3.1.3.3.3.1.3.1.3.3.3.1.",
"sXsXhXhXjXhXhXjXyXyXdXhXjXjXkXgXsXsXfXdXhXyX* N M $ 1X9X<X:XC >X:X4X0X0X^ ~ ~ =X=X=XiXiXiXiXiXiXiXaXdXdXjXjXdXiXyX=XjXiXjXjXjXdX",
"sXsXdXdXjXdXdXdXyXyXdXjXjXgXkXkXfXsXjXjXkXdX* M M $ 1XNXC 1X$XZ ` 5X0X5XV > B dXuXuXkXkXkXkXkXfXaXaXiXiXiXiXiXuX=X=XiXiXiXiXuXiX",
"mXsXK.S.S.S.S.S.B.B.V.D.B.F.oXtXcXfX~.Q.R.^.w : M $ $XwXA CX%X* A 4XqX:XZ 3 V ~.[.[.[.[.[.[.[.oXzXpXz g d d a g s s g d g f g d ",
"mXfXS.0.q.e.e.e.e.e.e.q.q.s.XXoXvXfXE.d.f.i.H.1X,XB V wX7XBXCX1X<X5XqX<X8X1X` H.~.E.Q.~.E.~.~.[.cXpXa 6 7 7 7 6 7 7 7 7 7 7 7 7 ",
"mXzXS.e.^.~.^.^.^.^.^.^.^./.XX@XcXsXE.d.a.8.m D :X~ C VX0X5X0X' ,X5XqX0X_ | 8XE.S.F.F.D.D.F.~.[.cXpXd 7 s s s s s s s s s s :.5.",
"mXsXV.e.^..X^..X(.(.(.(.(..XXX@XvXzXQ.d.d.-.c ,X' :XA CXZXVXwX9X0X0XNXVX>X,X8XC.S.S.D.D.S.D.E.{.cXpXa 7 s s s s s s u s s g 5.6.",
"mXsXV.e.^./.^./.^.(.(.~./.(.XX@XcXzXQ.d.a.a.5 Z >X7X;XZXZXZXBXqX0X2X9X8X) ' >XA.S.D.D.D.S.F.E.[.cXrXg 7 s u s s s s s s s g 5.6.",
"mXzXD.q.^./.^..X.X~..X.X~..XXXtXvXzXE.d.a.a.8.;.N.t.&XZXVXVXwX8XwX:X` ` ' ' ` b.S.D.B.s.S.F.~.[.cXpXa 7 s s s s s s s u s g 5.6.",
"mXsXS.e.^.(.(.(.(.(.(.(./..XXXoXvXzXQ.d.a.u.u.a.u.8.E.BXVXNX0X' ) ) ) ~ ~ ,XQ s.V.D._.'.I.G.K.[.cXpXa 7 u s s s u s s g s g 5.6.",
"mXfXV.e.^.(.(.(.(.(.(.(.^./.XXoXcXzXK.d.a.u.u.u.a.a.9.tXBXNXqX0X) C D ) ' ' A.S.m.T.lX%Xm c.^.{.cXsXd 7 s s s s s s s s s g 5.6.",
"mXzXV.e.^.(./.(.(.(.(.(.^..XXX@XvXzXQ.d.u.u.a.u.u.a.r.9.=XBXwXqXqX9X4X9X,XW w.D.,.A.*X*XW p ~.{.cXpXd 7 s s s s s s s u u g 5.6.",
"mXsXD.e.^.(./.(.(.(.(.(..X.XXX@XcXzXR.d.a.u.u.u.u.u.r.r.8.].7XqX0X0XNXqX` z.F.D.m.n #X#Xm 5 /.}.cXrXa 7 s s s s g u s g u g 5.6.",
"mXsXV.e.^./.(././././././..XXX@XvXzXQ.d.a.a.u.u.a.u.a.a.a.2.P.9X,X,X` W :.F.F.F.B.A.:X$XQ m ^.[.cXpXa 7 u s u s s u s u s g 5.6.",
"mXzXK.s.^..X(..X(..X(..X.X[.XX@XcXzXR.a.u.9.u.u.9.9.9.8.w.! ( 2X<XD B B b S.D.m.B.zXqX' 5X%XF.].cXpXd 7 s g g g g g g g g g 6.6.",
"mXcXoXXXXXXXXXXXoXXXXXXXXXoXOX@XvXsX-.O.+.O.O.O.+.O.+.! } 6X' ^ ^ D ` { Y R -.-.b.NX5X_ ' W =.b.zXpXa 7 :.:.:.:.:.:.:.:.5.5.5.5.",
"mXcXoX@XoX@X@X@XoX@X@X@XoXoX+X@XcXsXm.-.-.7.7.-.4.3.! { 6XVXBXNX6XNXVX6X| T J q.c.8XqX,X' A.q.C.sXpXz g b.b.V.b.N.N.N.N.b.V.N.N.",
"aXaXkXvXkXkXkXkXkXkXkXkXkXkXkXkXaXdXdXgXdXjXdXdXuX$XL 4XwXZXCX2X2X2X9XeX .[ ( dXv $XqX' _ -XgXdXaXaXuXdXdXgXgXdXyXyXdXgXfXdXdXhX",
"aXsXdXkXhXhXkXfXhXhXkXdXkXjXkXfXaXfXiXdXdXuXdXdX3XT P ' VXCX2XG F G ;X0X6X( L } J 1X2XD ) aXgXdXaXaXdXuXdXdXfXdXyX=XdXdXdXgXdXgX",
"mXfX_.E.].H.].H.E.).].I.E.Y.J._.zXpX6.g g *.l +.J I P } VX0XF G S S G G 6X( P 4XxXqX9XB N..Xd.R.zXaX6.*.B.V.B.B.B.B.B.B.B.B.B.B.",
"mXzXI.V.V.V.V.D.V.B.V.V.V.C.B.H.cXsX&.y y y y f U I P U NXG F S G G S F ' ( P NXMX0X:X4 l.l.t.a.hXaXg y 4.0.4.7.4.7.4.0.4.7.0.0.",
"mXzXI.V.v.v.b.v.b.b.m.v.m.b.5.b.lXpX*.u &.&.+.J Y P L B 0X_ 5X>XG _ 5X^ ~ P ( MX0X0XA.p.k.k.y.r.zXaX*.y &.&.=.$.&.=.&.&.&.=.0.q.",
"mXzX].V.v.v.v.v.v.v.v.v.v.v.:.x.zXaXk y &.&.:.7X| P K , } ^ _ F 4X_ ^ ^ E N.J 8X4X#Xp.p.k.p.y.f.hXlX*.y $.$.$.$.+.$.$.$.$.&.0.0.",
"mXzXI.B.m.v.v.v.v.v.v.v.v.v.:.b.zXpX*.y $.$.0.7X8XH 1.g ] ( ( / 6X .( L E j.i.Z.G.p.h.h.k.h.y.a.fXaXl y g $.$.$.g &.$.$.+.=.0.q.",
"mXlXI.V.b.v.v.v.v.v.v.v.v.z.:.x.zXaX*.y $.=.5.7X9Xl &.*.]  . . . .{ { { E i.j.j.p.h.h.h.h.h.y.r.fXpX*.y +.&.$.&.$.=.$.=.g =.0.0.",
"mXzX].V.x.v.v.v.v.v.v.v.v.v.:.b.zXaX%.u $.$.:.7X5Xf @.$./ T [ [ [ [ [ Y K g.j.j.k.h.h.h.h.p.t.f.fXaXl y g &.g $.&.$.$.&.g &.0.0.",
"mXfXI.V.b.v.v.v.v.v.v.v.m.z.:.b.zXpX%.y *.$.:.7X5Xl &.&.P Y Y Y Y Y I I J p.j.j.j.j.k.h.k.p.t.a.fXfX&.y &.+.=.&.&.$.1.g 1.$.0.q.",
"mXzX].V.v.v.v.v.m.v.v.v.v.z.5.x.lXpX%.y g &.$.$X<Xf =.&.U I I I I I I L J j.k.k.k.k.k.p.k.p.y.r.zXfX*.y +.&.+.&.+.&.+.&.g &.0.0.",
"mXzXI.B.v.v.v.v.v.z.v.q.v.v.:.b.zXaX%.y 3.3.g %X>Xp @.j P I I I Y I I L H j.h.p.p.h.h.h.h.p.y.d.fXpX*.y g &.$.&.g =.g 3.1.*.4.r.",
"mXzXY.V.m.b.v.v.v.v.v.v.v.v.:.b.zXaXl y g &.+.%X,Xm &.k V J b V b K b * =.j.h.h.k.k.h.h.h.h.y.r.zXzX%.y +.&.&.&.g &.$.$.g &.0.q.",
"mXzXY.D.b.w.q.z.v.z.v.v.v.z.:.b.zXaX4.u 3.3.1.#XR n -.:.P.>.#.>.......< &.j.p.p.p.p.h.p.p.p.y.d.fXaX%.y g $.+.g &.+.$.=.1.&.7.7.",
"mXzXY.B.:.:.:.:.:.:.:.:.:.:.:.x.zXsXN.7.0.q.7.N.W ,.8.,.T.M.,.<.,.....9 1.y.2.i.y.y.y.y.t.t.t.r.zXpX%.y y y y y y y y y y y y y ",
"mXsX_.H.b.b.b.b.x.b.b.b.b.b.z.Z.zXzXE.V.V.F.V.V.Z.H.S.M.T.<.X.>.>.....e r.d.a.a.r.a.d.a.a.d.r.R.fXaX6.g *.*.*.*.&.g g *.*.&.&.l ",
"fXaXfXgXdXdXgXdXgXdXdXfXgXdXdXdXaXaXdXhXdXdXdXdXyXyXdX&XL.,...o e X.e #.uXjXjXjXuXyXdXdXjXdXjXjXfXaXdXiXdXuXdXiX=X=XuXdXdXuXdXdX",
"sXaXfXhXfXfXkXfXhXhXhXhXhXhXhXhXaXfXhXkXhXkXhXhXyXuXdX&X<.X.2   1 #...,.iXjXfXfXyXyXfXfXdXfXdXdXaXaXdXdXdXdXdXdX=XuXdXdXdXdXdXdX",
"xXzX'.U.U.U.U.U.).U.U.).).).).'.lXzX}.~.~.].].].~.~.{.T.,.e + . 1 ,.X.j M.Z.Z.Z.C.Z.Z.Z.Z.Z.h n sXfXq.=.-.3.-.-.=.@.7.-.3.7.=.-.",
"mXzXU.H.I.H.I.H.I.I.H.Z.I.I.Z.U.cXzX].G.E.G.G.G.K.F.P.L.,.e . o e X.X.p ,.M.z.x.x.x.x.x.x.z.w h pXsX-.o.O.O.O.O.O.O.O.O.O.O.O.O.",
"mXzXU.I._.}.}.}.{.}.}.}.}._.I.`.cXzX].K.S.w.m.B.v.m.T.<.X.2   + e ....0 l n k k l z z z z k w h pXsX-.O.8.e.9.9.9.9.9.9.9.u.k.W.",
"mXzXU.I.}.}.}.}.}.}.}.}.}.}.).`.zXzX].K.m.w.w.w.q.C.&X<.X.o   + X.X.0 1 k k k k j k k k k h q h lXsX-.O.9.a.u.a.a.u.a.u.u.a.!.!.",
"mXzXU.I.}.}.}.}.}.}.}.}.}.}.I._.zXzX].G.m.w.w.m.q.P.L.#.e X   + #.X.e 1 k k z ;.z k k k k k q h pXfX-.O.9.a.u.u.u.9.u.u.a.a.W.!.",
"mXsXU.P.}.}.}.}.}.}.}.}.}.`.].`.zXzX].G.B.w.w.w.v.&XL.>.1 .   < ,.,.X.< k ;.5 O 5 p k k k h q h pXpX-.O.9.a.u.u.a.a.a.u.e.a.W.!.",
"lX-XU.I.}.}.}.}.}.}. X}.}.}.Y.).rXpX].G.v.w.m.w.<.T.L.X.<     + >.>.e < < O . .   < z l l j q h -X-X=.O.9.a.u.u.u.u.a.u.u.a.W.!.",
"lX-XU.I.}.}.}.}.}.}.}.}.}.}.U.U.rXrX~.G.m.m.w.m.P.<.,.r o . . O >.X.0 +   . . . X w z l k l w h -X-X=.O.9.a.9.a.u.a.u.u.u.a.W.!.",
"xXlXU.I.}.}.}.}. X|.}.}.}.}.I.`.zXzX].G.m.w.w.v.L.<.>.0 . .   < <.0 2 o . . . . 5 k k k k l q h pXaX-.+.9.a.a.u.a.a.u.r.a.a.W.!.",
"mXzXU.H.}.}.}.}.}.}.}.}.}.}.I.U.zXzX].G.m.w.w.;.m n #.1 . .   < X.x r o . .   O j k k k k j q h lXsX=.O.9.u.9.a.u.u.a.u.u.a.W.!.",
"mXzXU.I.}.}.}.}.}.}.}.}.}.}.I.`.cXlX].F.B.q.q.A.MX*Xr X . .   O n xXCXm   . X p z k k k k h w h pXsX-.+.9.a.u.u.u.u.u.e.u.a.W.!.",
"mXzXU.I.`.}.}.}.}.}.}._.}.}.I.`.vXzX].E.B.e.Z.CXCXcX@ . .   X X c CXCXxX@   5 k h h k j h h q h pXsX-.O.u.a.a.a.a.a.a.a.a.d.W.!.",
"mXzXU.H.U.I.I.U.I.].I.U._.I.P.`.zXzX].R.E.D.|.MXCXzX@     5 D.Z.#XmXMXmX@ X w w i w w w w i q h pXfX-.O.f.!.W.W.W.W.W.W.W.W.!.!.",
"mXlXU.Z.I.I.I.I.I.I.I.I.I.I.H.`.lXzX].R.E.E.E.,.v @ .   . z./.,.O x v x . o w q q q q q q q 8 h lXfX-.+.W.!.!.!.!.!.!.!.!.!.!.!."
};
